<mxfile host="app.diagrams.net" modified="2023-08-01T02:45:10.930Z" agent="Mozilla/5.0 (Windows NT 10.0; Win64; x64) AppleWebKit/537.36 (KHTML, like Gecko) Chrome/115.0.0.0 Safari/537.36" version="21.6.6" etag="OaATX97Ae8_0hJDQk11D" type="github">
  <diagram name="Trang-1" id="_9tDX54fQmeihn20TXuU">
    <mxGraphModel>
      <root>
        <mxCell id="0" />
        <mxCell id="1" parent="0" />
      </root>
    </mxGraphModel>
  </diagram>
</mxfile>
